<svg width="551" height="430" viewBox="0 0 551 430" fill="none" xmlns="http://www.w3.org/2000/svg">
<g filter="url(#filter0_d)">
<path d="M155.938 236.654H172.414V265.6H155.938V300H118.42V265.6H55.7422L53.5156 242.666L118.42 138.24V137.906H155.938V236.654ZM89.252 236.654H118.42V186.779L116.082 190.564L89.252 236.654ZM301.443 233.76C301.443 255.654 296.508 272.539 286.637 284.414C276.84 296.289 262.998 302.227 245.111 302.227C227.076 302.227 213.123 296.252 203.252 284.303C193.381 272.354 188.445 255.506 188.445 233.76V204.146C188.445 182.252 193.344 165.367 203.141 153.492C213.012 141.617 226.928 135.68 244.889 135.68C262.85 135.68 276.766 141.654 286.637 153.604C296.508 165.553 301.443 182.438 301.443 204.258V233.76ZM263.926 199.359C263.926 187.707 262.404 179.023 259.361 173.309C256.318 167.52 251.494 164.625 244.889 164.625C238.432 164.625 233.719 167.297 230.75 172.641C227.855 177.984 226.297 186.074 226.074 196.91V238.324C226.074 250.422 227.596 259.291 230.639 264.932C233.682 270.498 238.506 273.281 245.111 273.281C251.494 273.281 256.207 270.572 259.25 265.154C262.293 259.662 263.852 251.09 263.926 239.438V199.359ZM404.088 300H366.459V180.211L329.498 191.01V162.51L400.637 137.906H404.088V300Z" fill="black"/>
</g>
<path d="M334.5 50C334.191 50 333.889 50.0956 333.636 50.2736L227.136 125.274C226.602 125.65 226.373 126.33 226.57 126.953C226.768 127.576 227.346 128 228 128H302.5C303.006 128 303.479 127.744 303.756 127.32L352.756 52.3204C353.057 51.8594 353.081 51.2704 352.819 50.7861C352.557 50.3018 352.051 50 351.5 50H334.5ZM422.576 19.6148C422.184 19.4521 421.742 19.4627 421.359 19.6441C420.975 19.8254 420.687 20.1605 420.564 20.5665L412.564 47.0665C412.441 47.4734 412.497 47.9134 412.717 48.277C412.937 48.6406 413.301 48.8937 413.719 48.9734L523.3 69.8935L528.756 74.8946L536.199 91.6417L526.967 100.412C526.958 100.421 526.949 100.43 526.94 100.439L526.855 100.523L526.789 100.589C526.113 101.264 525.385 101.992 524.863 102.901C524.287 103.902 524 105.035 524 106.5C524 107.469 524.522 108.185 525.16 108.605C525.744 108.989 526.428 109.142 527.018 109.184C527.626 109.227 528.267 109.163 528.855 109C529.394 108.85 529.998 108.586 530.482 108.137L548.421 94.184C549.038 93.7038 549.183 92.8299 548.754 92.1762L537.302 74.7501L532.842 65.8292C532.68 65.5067 532.408 65.2532 532.076 65.1148L422.576 19.6148Z" fill="#DD6B20" stroke="white" stroke-width="3" stroke-linejoin="round"/>
<path d="M398.486 20.2474C398.09 9.82666 389.518 1.5 379 1.5C368.23 1.5 359.5 10.2304 359.5 21C359.5 22.5739 359.687 24.106 360.04 25.5745L340.02 42.8648C339.545 43.2744 339.376 43.9357 339.594 44.523C339.813 45.1104 340.373 45.5 341 45.5H359C359.351 45.5 359.691 45.377 359.96 45.1523L368.913 37.6916C371.857 39.474 375.31 40.5 379 40.5C385.163 40.5 390.658 37.6396 394.229 33.1794L407.405 38.8768C407.775 39.0367 408.193 39.0411 408.566 38.889C408.939 38.7368 409.236 38.4409 409.388 38.0679L413.888 27.0679C414.046 26.6837 414.036 26.2515 413.863 25.8742C413.69 25.4969 413.368 25.2083 412.974 25.077L398.486 20.2474ZM493.231 116.201C492.828 116.841 492.964 117.681 493.549 118.16C494.134 118.64 494.985 118.608 495.533 118.088L505.099 109H508.046L512.168 111.748C512.414 111.912 512.704 112 513 112H518.5V117C518.5 117.15 518.522 117.298 518.566 117.441L520.35 123.237L514.775 131.135C514.36 131.723 514.42 132.522 514.919 133.04C515.418 133.558 516.214 133.65 516.817 133.258L526.817 126.758C527.243 126.481 527.5 126.008 527.5 125.5V111.5C527.5 110.672 526.828 110 526 110H522V103.5C522 102.672 521.328 102 520.5 102H503C502.485 102 502.005 102.265 501.731 102.701L493.231 116.201ZM541 68C541 65.2086 539.595 62.9324 537.693 61.3956C535.806 59.872 533.35 59 531 59C525.803 59 521.5 62.5461 521.5 68C521.5 73.1425 524.997 78 531 78C536.886 78 541 73.2701 541 68Z" fill="#C05621" stroke="white" stroke-width="3" stroke-linejoin="round"/>
<g filter="url(#filter1_d)">
<path d="M82 367.5C82 339.057 105.057 316 133.5 316H395.5C423.943 316 447 339.057 447 367.5C447 395.943 423.943 419 395.5 419H133.5C105.057 419 82 395.943 82 367.5Z" fill="#DD6B20"/>
<path d="M133.5 314.5C104.229 314.5 80.5 338.229 80.5 367.5C80.5 396.771 104.229 420.5 133.5 420.5H395.5C424.771 420.5 448.5 396.771 448.5 367.5C448.5 338.229 424.771 314.5 395.5 314.5H133.5Z" stroke="white" stroke-width="3" stroke-miterlimit="16" stroke-linejoin="round"/>
</g>
<path d="M114.508 325.563C114.825 326.328 115.703 326.691 116.468 326.374C121.705 324.202 127.453 323 133.5 323H149.875C150.703 323 151.375 322.328 151.375 321.5V310.5C151.375 309.672 150.703 309 149.875 309H133.5C125.581 309 118.012 310.577 111.105 313.442C110.738 313.594 110.446 313.886 110.294 314.254C110.141 314.621 110.142 315.034 110.294 315.402L114.508 325.563ZM215.375 323C216.203 323 216.875 322.328 216.875 321.5V310.5C216.875 309.672 216.203 309 215.375 309H182.625C181.797 309 181.125 309.672 181.125 310.5V321.5C181.125 322.328 181.797 323 182.625 323H215.375ZM280.875 323C281.703 323 282.375 322.328 282.375 321.5V310.5C282.375 309.672 281.703 309 280.875 309H248.125C247.297 309 246.625 309.672 246.625 310.5V321.5C246.625 322.328 247.297 323 248.125 323H280.875ZM346.375 323C347.203 323 347.875 322.328 347.875 321.5V310.5C347.875 309.672 347.203 309 346.375 309H313.625C312.797 309 312.125 309.672 312.125 310.5V321.5C312.125 322.328 312.797 323 313.625 323H346.375ZM377.625 321.5C377.625 322.328 378.297 323 379.125 323H395.5C401.547 323 407.295 324.202 412.532 326.374C412.9 326.526 413.313 326.526 413.68 326.374C414.048 326.222 414.34 325.93 414.492 325.563L418.706 315.402C419.023 314.637 418.66 313.759 417.895 313.442C410.988 310.577 403.419 309 395.5 309H379.125C378.297 309 377.625 309.672 377.625 310.5V321.5ZM437.437 348.508C436.672 348.825 436.309 349.703 436.626 350.468C438.798 355.705 440 361.453 440 367.5C440 373.547 438.798 379.295 436.626 384.532C436.309 385.297 436.672 386.175 437.437 386.492L447.598 390.706C448.363 391.023 449.241 390.66 449.558 389.895C452.423 382.988 454 375.419 454 367.5C454 359.581 452.423 352.012 449.558 345.105C449.241 344.34 448.363 343.977 447.598 344.294L437.437 348.508ZM92.3739 350.468C92.5263 350.1 92.5265 349.687 92.3744 349.32C92.2223 348.952 91.9304 348.66 91.5629 348.508L81.4019 344.294C81.0345 344.142 80.6215 344.141 80.2539 344.294C79.8863 344.446 79.5942 344.738 79.4418 345.105C76.5774 352.012 75 359.581 75 367.5C75 375.419 76.5774 382.988 79.4418 389.895C79.7591 390.66 80.6367 391.023 81.4019 390.706L91.5629 386.492C91.9304 386.34 92.2223 386.048 92.3744 385.68C92.5265 385.313 92.5263 384.9 92.3739 384.532C90.2022 379.295 89 373.547 89 367.5C89 361.453 90.2022 355.705 92.3739 350.468ZM115.32 408.626C114.952 408.778 114.66 409.07 114.508 409.437L110.294 419.598C109.977 420.363 110.34 421.241 111.105 421.558C118.012 424.423 125.581 426 133.5 426H149.875C150.703 426 151.375 425.328 151.375 424.5V413.5C151.375 412.672 150.703 412 149.875 412H133.5C127.453 412 121.705 410.798 116.468 408.626C116.1 408.474 115.687 408.474 115.32 408.626ZM414.492 409.437C414.34 409.07 414.048 408.778 413.68 408.626C413.313 408.474 412.9 408.474 412.532 408.626C407.295 410.798 401.547 412 395.5 412H379.125C378.297 412 377.625 412.672 377.625 413.5V424.5C377.625 425.328 378.297 426 379.125 426H395.5C403.419 426 410.988 424.423 417.895 421.558C418.66 421.241 419.023 420.363 418.706 419.598L414.492 409.437ZM182.625 412C181.797 412 181.125 412.672 181.125 413.5V424.5C181.125 425.328 181.797 426 182.625 426H215.375C216.203 426 216.875 425.328 216.875 424.5V413.5C216.875 412.672 216.203 412 215.375 412H182.625ZM248.125 412C247.297 412 246.625 412.672 246.625 413.5V424.5C246.625 425.328 247.297 426 248.125 426H280.875C281.703 426 282.375 425.328 282.375 424.5V413.5C282.375 412.672 281.703 412 280.875 412H248.125ZM313.625 412C312.797 412 312.125 412.672 312.125 413.5V424.5C312.125 425.328 312.797 426 313.625 426H346.375C347.203 426 347.875 425.328 347.875 424.5V413.5C347.875 412.672 347.203 412 346.375 412H313.625Z" fill="#DD6B20" stroke="white" stroke-width="3" stroke-miterlimit="16" stroke-linejoin="round"/>
<circle cx="130.5" cy="367.5" r="26.5" fill="white" stroke="black" stroke-width="3"/>
<circle cx="130.5" cy="367.5" r="19.5" fill="black"/>
<circle cx="264.5" cy="367.5" r="26.5" fill="white" stroke="black" stroke-width="3"/>
<circle cx="264.5" cy="367.5" r="19.5" fill="black"/>
<circle cx="197.5" cy="367.5" r="26.5" fill="white" stroke="black" stroke-width="3"/>
<circle cx="197.5" cy="367.5" r="19.5" fill="black"/>
<circle cx="331.5" cy="367.5" r="26.5" fill="white" stroke="black" stroke-width="3"/>
<circle cx="331.5" cy="367.5" r="19.5" fill="black"/>
<circle cx="398.5" cy="367.5" r="26.5" fill="white" stroke="black" stroke-width="3"/>
<circle cx="398.5" cy="367.5" r="19.5" fill="black"/>
<defs>
<filter id="filter0_d" x="18.5156" y="100.68" width="420.572" height="236.547" filterUnits="userSpaceOnUse" color-interpolation-filters="sRGB">
<feFlood flood-opacity="0" result="BackgroundImageFix"/>
<feColorMatrix in="SourceAlpha" type="matrix" values="0 0 0 0 0 0 0 0 0 0 0 0 0 0 0 0 0 0 127 0"/>
<feOffset/>
<feGaussianBlur stdDeviation="17.5"/>
<feColorMatrix type="matrix" values="0 0 0 0 0 0 0 0 0 0 0 0 0 0 0 0 0 0 0.25 0"/>
<feBlend mode="normal" in2="BackgroundImageFix" result="effect1_dropShadow"/>
<feBlend mode="normal" in="SourceGraphic" in2="effect1_dropShadow" result="shape"/>
</filter>
<filter id="filter1_d" x="75" y="313" width="379" height="117" filterUnits="userSpaceOnUse" color-interpolation-filters="sRGB">
<feFlood flood-opacity="0" result="BackgroundImageFix"/>
<feColorMatrix in="SourceAlpha" type="matrix" values="0 0 0 0 0 0 0 0 0 0 0 0 0 0 0 0 0 0 127 0"/>
<feOffset dy="4"/>
<feGaussianBlur stdDeviation="2"/>
<feColorMatrix type="matrix" values="0 0 0 0 0 0 0 0 0 0 0 0 0 0 0 0 0 0 0.25 0"/>
<feBlend mode="normal" in2="BackgroundImageFix" result="effect1_dropShadow"/>
<feBlend mode="normal" in="SourceGraphic" in2="effect1_dropShadow" result="shape"/>
</filter>
</defs>
</svg>
